<?xml version="1.0" encoding="utf-8"?>
<!DOCTYPE svg
  PUBLIC '-//W3C//DTD SVG 1.0//EN'
  'http://www.w3.org/TR/2001/REC-SVG-20010904/DTD/svg10.dtd'>
<svg width="600" height="400" preserveAspectRatio="xMinYMin meet" viewBox="0 0 600 400" xmlns="http://www.w3.org/2000/svg" version="1.0" fill-rule="evenodd" xmlns:xlink="http://www.w3.org/1999/xlink">
	<title>...</title>
	<desc>...</desc>
	<clipPath id="clip">
		<rect x="0" y="0" width="600" height="400"/>
	</clipPath>
	<g id="group" transform="scale(1,-1) translate(0,-400)" style="clip-path: url(#clip)">
		<g transform="">
			<path d="M 54.456522,265.7 L 54.456522,265.7 Z" style="stroke: rgb(93%,50%,93%); stroke-linecap: butt; stroke-width: 1;"/>
			<path d="M 54.456522,265.7 L 78.913043,261.38 Z" style="stroke: rgb(93%,50%,93%); stroke-linecap: butt; stroke-width: 1;"/>
			<path d="M 78.913043,261.38 L 103.369565,263.54 Z" style="stroke: rgb(93%,50%,93%); stroke-linecap: butt; stroke-width: 1;"/>
			<path d="M 103.369565,263.54 L 127.826087,263.54 Z" style="stroke: rgb(93%,50%,93%); stroke-linecap: butt; stroke-width: 1;"/>
			<path d="M 127.826087,263.54 L 152.282609,266.78 Z" style="stroke: rgb(93%,50%,93%); stroke-linecap: butt; stroke-width: 1;"/>
			<path d="M 152.282609,266.78 L 176.73913,271.1 Z" style="stroke: rgb(93%,50%,93%); stroke-linecap: butt; stroke-width: 1;"/>
			<path d="M 176.73913,271.1 L 201.195652,270.02 Z" style="stroke: rgb(93%,50%,93%); stroke-linecap: butt; stroke-width: 1;"/>
			<path d="M 201.195652,270.02 L 225.652174,268.94 Z" style="stroke: rgb(93%,50%,93%); stroke-linecap: butt; stroke-width: 1;"/>
			<path d="M 225.652174,268.94 L 250.108696,265.7 Z" style="stroke: rgb(93%,50%,93%); stroke-linecap: butt; stroke-width: 1;"/>
			<path d="M 250.108696,265.7 L 274.565217,266.78 Z" style="stroke: rgb(93%,50%,93%); stroke-linecap: butt; stroke-width: 1;"/>
			<path d="M 274.565217,266.78 L 299.021739,265.7 Z" style="stroke: rgb(93%,50%,93%); stroke-linecap: butt; stroke-width: 1;"/>
			<path d="M 299.021739,265.7 L 323.478261,261.38 Z" style="stroke: rgb(93%,50%,93%); stroke-linecap: butt; stroke-width: 1;"/>
			<path d="M 323.478261,261.38 L 347.934783,263.54 Z" style="stroke: rgb(93%,50%,93%); stroke-linecap: butt; stroke-width: 1;"/>
			<path d="M 347.934783,263.54 L 372.391304,268.94 Z" style="stroke: rgb(93%,50%,93%); stroke-linecap: butt; stroke-width: 1;"/>
			<path d="M 372.391304,268.94 L 396.847826,273.26 Z" style="stroke: rgb(93%,50%,93%); stroke-linecap: butt; stroke-width: 1;"/>
			<path d="M 396.847826,273.26 L 421.304348,266.78 Z" style="stroke: rgb(93%,50%,93%); stroke-linecap: butt; stroke-width: 1;"/>
			<path d="M 421.304348,266.78 L 445.76087,247.34 Z" style="stroke: rgb(93%,50%,93%); stroke-linecap: butt; stroke-width: 1;"/>
			<path d="M 445.76087,247.34 L 470.217391,236.54 Z" style="stroke: rgb(93%,50%,93%); stroke-linecap: butt; stroke-width: 1;"/>
			<path d="M 470.217391,236.54 L 494.673913,236.54 Z" style="stroke: rgb(93%,50%,93%); stroke-linecap: butt; stroke-width: 1;"/>
			<path d="M 494.673913,236.54 L 519.130435,241.94 Z" style="stroke: rgb(93%,50%,93%); stroke-linecap: butt; stroke-width: 1;"/>
			<path d="M 519.130435,241.94 L 543.586957,260.3 Z" style="stroke: rgb(93%,50%,93%); stroke-linecap: butt; stroke-width: 1;"/>
			<path d="M 543.586957,260.3 L 568.043478,275.42 Z" style="stroke: rgb(93%,50%,93%); stroke-linecap: butt; stroke-width: 1;"/>
			<path d="M 568.043478,275.42 L 570,278.66 Z" style="stroke: rgb(93%,50%,93%); stroke-linecap: butt; stroke-width: 1;"/>
			<path d="M 30,98.66 L 52.5,98.66 Z" style="stroke: rgb(93%,50%,93%); stroke-linecap: butt; stroke-width: 1;"/>
			<path d="M 52.5,98.66 L 76.956522,97.58 Z" style="stroke: rgb(93%,50%,93%); stroke-linecap: butt; stroke-width: 1;"/>
			<path d="M 76.956522,97.58 L 101.413043,95.42 Z" style="stroke: rgb(93%,50%,93%); stroke-linecap: butt; stroke-width: 1;"/>
			<path d="M 101.413043,95.42 L 125.869565,90.02 Z" style="stroke: rgb(93%,50%,93%); stroke-linecap: butt; stroke-width: 1;"/>
			<path d="M 125.869565,90.02 L 150.326087,92.18 Z" style="stroke: rgb(93%,50%,93%); stroke-linecap: butt; stroke-width: 1;"/>
			<path d="M 150.326087,92.18 L 174.782609,88.94 Z" style="stroke: rgb(93%,50%,93%); stroke-linecap: butt; stroke-width: 1;"/>
			<path d="M 174.782609,88.94 L 199.23913,83.54 Z" style="stroke: rgb(93%,50%,93%); stroke-linecap: butt; stroke-width: 1;"/>
			<path d="M 199.23913,83.54 L 223.695652,85.7 Z" style="stroke: rgb(93%,50%,93%); stroke-linecap: butt; stroke-width: 1;"/>
			<path d="M 223.695652,85.7 L 248.152174,80.3 Z" style="stroke: rgb(93%,50%,93%); stroke-linecap: butt; stroke-width: 1;"/>
			<path d="M 248.152174,80.3 L 272.608696,81.38 Z" style="stroke: rgb(93%,50%,93%); stroke-linecap: butt; stroke-width: 1;"/>
			<path d="M 272.608696,81.38 L 297.065217,87.86 Z" style="stroke: rgb(93%,50%,93%); stroke-linecap: butt; stroke-width: 1;"/>
			<path d="M 297.065217,87.86 L 321.521739,92.18 Z" style="stroke: rgb(93%,50%,93%); stroke-linecap: butt; stroke-width: 1;"/>
			<path d="M 321.521739,92.18 L 345.978261,93.26 Z" style="stroke: rgb(93%,50%,93%); stroke-linecap: butt; stroke-width: 1;"/>
			<path d="M 345.978261,93.26 L 370.434783,95.42 Z" style="stroke: rgb(93%,50%,93%); stroke-linecap: butt; stroke-width: 1;"/>
			<path d="M 370.434783,95.42 L 394.891304,95.42 Z" style="stroke: rgb(93%,50%,93%); stroke-linecap: butt; stroke-width: 1;"/>
			<path d="M 394.891304,95.42 L 419.347826,93.26 Z" style="stroke: rgb(93%,50%,93%); stroke-linecap: butt; stroke-width: 1;"/>
			<path d="M 419.347826,93.26 L 443.804348,90.02 Z" style="stroke: rgb(93%,50%,93%); stroke-linecap: butt; stroke-width: 1;"/>
			<path d="M 443.804348,90.02 L 468.26087,86.78 Z" style="stroke: rgb(93%,50%,93%); stroke-linecap: butt; stroke-width: 1;"/>
			<path d="M 468.26087,86.78 L 492.717391,82.46 Z" style="stroke: rgb(93%,50%,93%); stroke-linecap: butt; stroke-width: 1;"/>
			<path d="M 492.717391,82.46 L 517.173913,85.7 Z" style="stroke: rgb(93%,50%,93%); stroke-linecap: butt; stroke-width: 1;"/>
			<path d="M 517.173913,85.7 L 541.630435,90.02 Z" style="stroke: rgb(93%,50%,93%); stroke-linecap: butt; stroke-width: 1;"/>
			<path d="M 541.630435,90.02 L 543.586957,90.02 Z" style="stroke: rgb(93%,50%,93%); stroke-linecap: butt; stroke-width: 1;"/>
			<polygon points="309.7826 338.6, 570 338.6, 570 343.46, 309.7826 343.46" style="stroke: rgb(85%,43%,57%); stroke-linecap: butt; stroke-width: 1; fill: rgb(85%,43%,57%); fill-rule: evenodd;"/>
			<polygon points="30 158.6, 202.1739 158.6, 202.1739 163.46, 30 163.46" style="stroke: rgb(85%,43%,57%); stroke-linecap: butt; stroke-width: 1; fill: rgb(85%,43%,57%); fill-rule: evenodd;"/>
			<polygon points="309.7826 338.6, 333.2609 338.6, 333.2609 343.46, 309.7826 343.46" style="stroke: rgb(100%,0%,0%); stroke-linecap: butt; stroke-width: 1; fill: rgb(100%,0%,0%); fill-rule: evenodd;"/>
			<polygon points="175.7609 158.6, 202.1739 158.6, 202.1739 163.46, 175.7609 163.46" style="stroke: rgb(100%,0%,0%); stroke-linecap: butt; stroke-width: 1; fill: rgb(100%,0%,0%); fill-rule: evenodd;"/>
			<path d="M 30,257.6 L 570,257.6 Z" style="stroke: rgb(0%,0%,0%); stroke-linecap: butt; stroke-width: 1;"/>
			<path d="M 30,236.54 L 30,278.66 Z" style="stroke: rgb(0%,0%,0%); stroke-linecap: butt; stroke-width: 1;"/>
			<path d="M 568.043478,56.54 L 568.043478,98.66 Z" style="stroke: rgb(0%,0%,0%); stroke-linecap: butt; stroke-width: 1;"/>
			<path d="M 30,77.6 L 568.043478,77.6 Z" style="stroke: rgb(0%,0%,0%); stroke-linecap: butt; stroke-width: 1;"/>
			<path d="M 30,56.54 L 30,98.66 Z" style="stroke: rgb(0%,0%,0%); stroke-linecap: butt; stroke-width: 1;"/>
			<path d="M 468.26087,77.6 L 468.26087,88.13 Z" style="stroke: rgb(0%,0%,0%); stroke-linecap: butt; stroke-width: 1;"/>
			<path d="M 30,338.6 L 570,338.6 Z" style="stroke: rgb(0%,0%,0%); stroke-linecap: butt; stroke-width: 1;"/>
			<path d="M 30,333.74 L 30,343.46 Z" style="stroke: rgb(0%,0%,0%); stroke-linecap: butt; stroke-width: 1;"/>
			<path d="M 568.043478,153.74 L 568.043478,163.46 Z" style="stroke: rgb(0%,0%,0%); stroke-linecap: butt; stroke-width: 1;"/>
			<path d="M 30,158.6 L 568.043478,158.6 Z" style="stroke: rgb(0%,0%,0%); stroke-linecap: butt; stroke-width: 1;"/>
			<path d="M 30,153.74 L 30,163.46 Z" style="stroke: rgb(0%,0%,0%); stroke-linecap: butt; stroke-width: 1;"/>
			<g transform=" matrix(0.707107,0.707107,-0.707107,0.707107,468.26087,88.13)">
				<text x="0" y="0" style="font-family: Helvetica; font-size: 6px;fill: rgb(0%,0%,0%); stroke:none;" transform="translate(0,0) scale(1,-1)">1000</text>
			</g>
			<g transform=" matrix(0.707107,0.707107,-0.707107,0.707107,30,236.54)">
				<text x="0" y="0" style="font-family: Helvetica; font-size: 6px;fill: rgb(0%,0%,0%); stroke:none;" transform="translate(0,0) scale(1,-1)">0.000</text>
			</g>
			<g transform=" matrix(0.707107,0.707107,-0.707107,0.707107,30,278.66)">
				<text x="0" y="0" style="font-family: Helvetica; font-size: 6px;fill: rgb(0%,0%,0%); stroke:none;" transform="translate(0,0) scale(1,-1)">0.780</text>
			</g>
			<g transform=" matrix(0.707107,0.707107,-0.707107,0.707107,30,257.6)">
				<text x="0" y="0" style="font-family: Helvetica; font-size: 6px;fill: rgb(0%,0%,0%); stroke:none;" transform="translate(0,0) scale(1,-1)"></text>
			</g>
			<g transform=" matrix(0.707107,0.707107,-0.707107,0.707107,30,56.54)">
				<text x="0" y="0" style="font-family: Helvetica; font-size: 6px;fill: rgb(0%,0%,0%); stroke:none;" transform="translate(0,0) scale(1,-1)">0.000</text>
			</g>
			<g transform=" matrix(0.707107,0.707107,-0.707107,0.707107,30,98.66)">
				<text x="0" y="0" style="font-family: Helvetica; font-size: 6px;fill: rgb(0%,0%,0%); stroke:none;" transform="translate(0,0) scale(1,-1)">0.780</text>
			</g>
			<g transform=" matrix(0.707107,0.707107,-0.707107,0.707107,30,77.6)">
				<text x="0" y="0" style="font-family: Helvetica; font-size: 6px;fill: rgb(0%,0%,0%); stroke:none;" transform="translate(0,0) scale(1,-1)"></text>
			</g>
			<g transform=" matrix(1,0,-0,1,439.891304,343.46)">
				<text x="0" y="0" style="font-family: Helvetica; font-size: 6px;fill: rgb(0%,0%,0%); stroke:none;" transform="translate(0,0) scale(1,-1)">1</text>
			</g>
			<g transform=" matrix(1,0,-0,1,116.086957,163.46)">
				<text x="0" y="0" style="font-family: Helvetica; font-size: 6px;fill: rgb(0%,0%,0%); stroke:none;" transform="translate(0,0) scale(1,-1)">1</text>
			</g>
		</g>
	</g>
</svg>
