<?xml version="1.0" encoding="utf-8"?>
<!DOCTYPE svg
  PUBLIC '-//W3C//DTD SVG 1.0//EN'
  'http://www.w3.org/TR/2001/REC-SVG-20010904/DTD/svg10.dtd'>
<svg width="600" height="400" preserveAspectRatio="xMinYMin meet" viewBox="0 0 600 400" xmlns="http://www.w3.org/2000/svg" version="1.0" fill-rule="evenodd" xmlns:xlink="http://www.w3.org/1999/xlink">
	<title>...</title>
	<desc>...</desc>
	<clipPath id="clip">
		<rect x="0" y="0" width="600" height="400"/>
	</clipPath>
	<g id="group" transform="scale(1,-1) translate(0,-400)" style="clip-path: url(#clip)">
		<g transform="">
			<path d="M 62.76699,261.812 L 62.76699,261.812 Z" style="stroke: rgb(93%,50%,93%); stroke-linecap: butt; stroke-width: 1;"/>
			<path d="M 62.76699,261.812 L 95.533981,247.772 Z" style="stroke: rgb(93%,50%,93%); stroke-linecap: butt; stroke-width: 1;"/>
			<path d="M 95.533981,247.772 L 128.300971,244.964 Z" style="stroke: rgb(93%,50%,93%); stroke-linecap: butt; stroke-width: 1;"/>
			<path d="M 128.300971,244.964 L 161.067961,244.964 Z" style="stroke: rgb(93%,50%,93%); stroke-linecap: butt; stroke-width: 1;"/>
			<path d="M 161.067961,244.964 L 193.834951,239.348 Z" style="stroke: rgb(93%,50%,93%); stroke-linecap: butt; stroke-width: 1;"/>
			<path d="M 193.834951,239.348 L 226.601942,244.964 Z" style="stroke: rgb(93%,50%,93%); stroke-linecap: butt; stroke-width: 1;"/>
			<path d="M 226.601942,244.964 L 259.368932,250.58 Z" style="stroke: rgb(93%,50%,93%); stroke-linecap: butt; stroke-width: 1;"/>
			<path d="M 259.368932,250.58 L 292.135922,247.772 Z" style="stroke: rgb(93%,50%,93%); stroke-linecap: butt; stroke-width: 1;"/>
			<path d="M 292.135922,247.772 L 324.902913,244.964 Z" style="stroke: rgb(93%,50%,93%); stroke-linecap: butt; stroke-width: 1;"/>
			<path d="M 324.902913,244.964 L 357.669903,250.58 Z" style="stroke: rgb(93%,50%,93%); stroke-linecap: butt; stroke-width: 1;"/>
			<path d="M 357.669903,250.58 L 390.436893,253.388 Z" style="stroke: rgb(93%,50%,93%); stroke-linecap: butt; stroke-width: 1;"/>
			<path d="M 390.436893,253.388 L 423.203883,247.772 Z" style="stroke: rgb(93%,50%,93%); stroke-linecap: butt; stroke-width: 1;"/>
			<path d="M 423.203883,247.772 L 455.970874,242.156 Z" style="stroke: rgb(93%,50%,93%); stroke-linecap: butt; stroke-width: 1;"/>
			<path d="M 455.970874,242.156 L 488.737864,244.964 Z" style="stroke: rgb(93%,50%,93%); stroke-linecap: butt; stroke-width: 1;"/>
			<path d="M 488.737864,244.964 L 521.504854,247.772 Z" style="stroke: rgb(93%,50%,93%); stroke-linecap: butt; stroke-width: 1;"/>
			<path d="M 521.504854,247.772 L 554.271845,236.54 Z" style="stroke: rgb(93%,50%,93%); stroke-linecap: butt; stroke-width: 1;"/>
			<path d="M 554.271845,236.54 L 570,247.772 Z" style="stroke: rgb(93%,50%,93%); stroke-linecap: butt; stroke-width: 1;"/>
			<path d="M 30,67.772 L 47.038835,67.772 Z" style="stroke: rgb(93%,50%,93%); stroke-linecap: butt; stroke-width: 1;"/>
			<path d="M 47.038835,67.772 L 79.805825,73.388 Z" style="stroke: rgb(93%,50%,93%); stroke-linecap: butt; stroke-width: 1;"/>
			<path d="M 79.805825,73.388 L 112.572816,64.964 Z" style="stroke: rgb(93%,50%,93%); stroke-linecap: butt; stroke-width: 1;"/>
			<path d="M 112.572816,64.964 L 145.339806,67.772 Z" style="stroke: rgb(93%,50%,93%); stroke-linecap: butt; stroke-width: 1;"/>
			<path d="M 145.339806,67.772 L 178.106796,76.196 Z" style="stroke: rgb(93%,50%,93%); stroke-linecap: butt; stroke-width: 1;"/>
			<path d="M 178.106796,76.196 L 210.873786,67.772 Z" style="stroke: rgb(93%,50%,93%); stroke-linecap: butt; stroke-width: 1;"/>
			<path d="M 210.873786,67.772 L 243.640777,56.54 Z" style="stroke: rgb(93%,50%,93%); stroke-linecap: butt; stroke-width: 1;"/>
			<path d="M 243.640777,56.54 L 276.407767,64.964 Z" style="stroke: rgb(93%,50%,93%); stroke-linecap: butt; stroke-width: 1;"/>
			<path d="M 276.407767,64.964 L 309.174757,64.964 Z" style="stroke: rgb(93%,50%,93%); stroke-linecap: butt; stroke-width: 1;"/>
			<path d="M 309.174757,64.964 L 341.941748,79.004 Z" style="stroke: rgb(93%,50%,93%); stroke-linecap: butt; stroke-width: 1;"/>
			<path d="M 341.941748,79.004 L 374.708738,98.66 Z" style="stroke: rgb(93%,50%,93%); stroke-linecap: butt; stroke-width: 1;"/>
			<path d="M 374.708738,98.66 L 407.475728,90.236 Z" style="stroke: rgb(93%,50%,93%); stroke-linecap: butt; stroke-width: 1;"/>
			<path d="M 407.475728,90.236 L 440.242718,76.196 Z" style="stroke: rgb(93%,50%,93%); stroke-linecap: butt; stroke-width: 1;"/>
			<path d="M 440.242718,76.196 L 473.009709,67.772 Z" style="stroke: rgb(93%,50%,93%); stroke-linecap: butt; stroke-width: 1;"/>
			<path d="M 473.009709,67.772 L 505.776699,64.964 Z" style="stroke: rgb(93%,50%,93%); stroke-linecap: butt; stroke-width: 1;"/>
			<path d="M 505.776699,64.964 L 534.61165,67.772 Z" style="stroke: rgb(93%,50%,93%); stroke-linecap: butt; stroke-width: 1;"/>
			<polygon points="75.87379 338.6, 570 338.6, 570 343.46, 75.87379 343.46" style="stroke: rgb(85%,43%,57%); stroke-linecap: butt; stroke-width: 1; fill: rgb(85%,43%,57%); fill-rule: evenodd;"/>
			<polygon points="30 158.6, 176.7961 158.6, 176.7961 163.46, 30 163.46" style="stroke: rgb(85%,43%,57%); stroke-linecap: butt; stroke-width: 1; fill: rgb(85%,43%,57%); fill-rule: evenodd;"/>
			<polygon points="75.87379 338.6, 113.8835 338.6, 113.8835 343.46, 75.87379 343.46" style="stroke: rgb(100%,0%,0%); stroke-linecap: butt; stroke-width: 1; fill: rgb(100%,0%,0%); fill-rule: evenodd;"/>
			<polygon points="134.8544 158.6, 176.7961 158.6, 176.7961 163.46, 134.8544 163.46" style="stroke: rgb(100%,0%,0%); stroke-linecap: butt; stroke-width: 1; fill: rgb(100%,0%,0%); fill-rule: evenodd;"/>
			<polygon points="431.068 333.74, 570 333.74, 570 338.6, 431.068 338.6" style="stroke: rgb(85%,43%,57%); stroke-linecap: butt; stroke-width: 1; fill: rgb(85%,43%,57%); fill-rule: evenodd;"/>
			<polygon points="30 153.74, 535.9223 153.74, 535.9223 158.6, 30 158.6" style="stroke: rgb(85%,43%,57%); stroke-linecap: butt; stroke-width: 1; fill: rgb(85%,43%,57%); fill-rule: evenodd;"/>
			<polygon points="431.068 333.74, 470.3883 333.74, 470.3883 338.6, 431.068 338.6" style="stroke: rgb(100%,0%,0%); stroke-linecap: butt; stroke-width: 1; fill: rgb(100%,0%,0%); fill-rule: evenodd;"/>
			<polygon points="495.2913 153.74, 535.9223 153.74, 535.9223 158.6, 495.2913 158.6" style="stroke: rgb(100%,0%,0%); stroke-linecap: butt; stroke-width: 1; fill: rgb(100%,0%,0%); fill-rule: evenodd;"/>
			<path d="M 30,257.6 L 570,257.6 Z" style="stroke: rgb(0%,0%,0%); stroke-linecap: butt; stroke-width: 1;"/>
			<path d="M 30,236.54 L 30,278.66 Z" style="stroke: rgb(0%,0%,0%); stroke-linecap: butt; stroke-width: 1;"/>
			<path d="M 567.378641,56.54 L 567.378641,98.66 Z" style="stroke: rgb(0%,0%,0%); stroke-linecap: butt; stroke-width: 1;"/>
			<path d="M 30,77.6 L 567.378641,77.6 Z" style="stroke: rgb(0%,0%,0%); stroke-linecap: butt; stroke-width: 1;"/>
			<path d="M 30,56.54 L 30,98.66 Z" style="stroke: rgb(0%,0%,0%); stroke-linecap: butt; stroke-width: 1;"/>
			<path d="M 30,338.6 L 570,338.6 Z" style="stroke: rgb(0%,0%,0%); stroke-linecap: butt; stroke-width: 1;"/>
			<path d="M 30,333.74 L 30,343.46 Z" style="stroke: rgb(0%,0%,0%); stroke-linecap: butt; stroke-width: 1;"/>
			<path d="M 567.378641,153.74 L 567.378641,163.46 Z" style="stroke: rgb(0%,0%,0%); stroke-linecap: butt; stroke-width: 1;"/>
			<path d="M 30,158.6 L 567.378641,158.6 Z" style="stroke: rgb(0%,0%,0%); stroke-linecap: butt; stroke-width: 1;"/>
			<path d="M 30,153.74 L 30,163.46 Z" style="stroke: rgb(0%,0%,0%); stroke-linecap: butt; stroke-width: 1;"/>
			<g transform=" matrix(0.707107,0.707107,-0.707107,0.707107,30,236.54)">
				<text x="0" y="0" style="font-family: Helvetica; font-size: 6px;fill: rgb(0%,0%,0%); stroke:none;" transform="translate(0,0) scale(1,-1)">0.240</text>
			</g>
			<g transform=" matrix(0.707107,0.707107,-0.707107,0.707107,30,278.66)">
				<text x="0" y="0" style="font-family: Helvetica; font-size: 6px;fill: rgb(0%,0%,0%); stroke:none;" transform="translate(0,0) scale(1,-1)">0.540</text>
			</g>
			<g transform=" matrix(0.707107,0.707107,-0.707107,0.707107,30,257.6)">
				<text x="0" y="0" style="font-family: Helvetica; font-size: 6px;fill: rgb(0%,0%,0%); stroke:none;" transform="translate(0,0) scale(1,-1)"></text>
			</g>
			<g transform=" matrix(0.707107,0.707107,-0.707107,0.707107,30,56.54)">
				<text x="0" y="0" style="font-family: Helvetica; font-size: 6px;fill: rgb(0%,0%,0%); stroke:none;" transform="translate(0,0) scale(1,-1)">0.240</text>
			</g>
			<g transform=" matrix(0.707107,0.707107,-0.707107,0.707107,30,98.66)">
				<text x="0" y="0" style="font-family: Helvetica; font-size: 6px;fill: rgb(0%,0%,0%); stroke:none;" transform="translate(0,0) scale(1,-1)">0.540</text>
			</g>
			<g transform=" matrix(0.707107,0.707107,-0.707107,0.707107,30,77.6)">
				<text x="0" y="0" style="font-family: Helvetica; font-size: 6px;fill: rgb(0%,0%,0%); stroke:none;" transform="translate(0,0) scale(1,-1)"></text>
			</g>
			<g transform=" matrix(1,0,-0,1,322.936893,343.46)">
				<text x="0" y="0" style="font-family: Helvetica; font-size: 6px;fill: rgb(0%,0%,0%); stroke:none;" transform="translate(0,0) scale(1,-1)">1</text>
			</g>
			<g transform=" matrix(1,0,-0,1,103.398058,163.46)">
				<text x="0" y="0" style="font-family: Helvetica; font-size: 6px;fill: rgb(0%,0%,0%); stroke:none;" transform="translate(0,0) scale(1,-1)">1</text>
			</g>
			<g transform=" matrix(1,0,-0,1,500.533981,333.74)">
				<text x="0" y="0" style="font-family: Helvetica; font-size: 6px;fill: rgb(0%,0%,0%); stroke:none;" transform="translate(0,0) scale(1,-1)">2</text>
			</g>
			<g transform=" matrix(1,0,-0,1,282.961165,153.74)">
				<text x="0" y="0" style="font-family: Helvetica; font-size: 6px;fill: rgb(0%,0%,0%); stroke:none;" transform="translate(0,0) scale(1,-1)">2</text>
			</g>
		</g>
	</g>
</svg>
